<svg width="1024" height="264" viewBox="0 0 1024 264" fill="none" xmlns="http://www.w3.org/2000/svg">
<path d="M12.9082 93.4872V75.9872L82.9082 45.1633V65.2983L34.9821 84.5384L35.6284 83.4943V85.9801L34.9821 84.9361L82.9082 104.176V124.311L12.9082 93.4872ZM926.761 28.4091L893.949 150.312H875.703L908.515 28.4091H926.761ZM1011.09 103.033L941.092 133.857V113.722L989.018 94.4815L988.372 95.5256V93.0398L989.018 94.0838L941.092 74.8438V54.7088L1011.09 85.5327V103.033Z" fill="#4D81EE"/>
<path d="M125.863 33.1818V135H104.336V33.1818H125.863ZM171.316 136.243C165.515 136.243 160.262 134.751 155.556 131.768C150.882 128.752 147.17 124.328 144.419 118.494C141.701 112.628 140.343 105.436 140.343 96.9176C140.343 88.1676 141.751 80.8925 144.568 75.0923C147.386 69.259 151.131 64.9006 155.804 62.017C160.511 59.1004 165.664 57.642 171.266 57.642C175.541 57.642 179.104 58.3712 181.955 59.8295C184.838 61.2547 187.158 63.0445 188.915 65.1989C190.705 67.3201 192.064 69.4081 192.992 71.4631H193.638V33.1818H214.767V135H193.887V122.77H192.992C191.997 124.891 190.589 126.996 188.766 129.084C186.976 131.139 184.639 132.846 181.756 134.205C178.905 135.563 175.425 136.243 171.316 136.243ZM178.027 119.389C181.441 119.389 184.325 118.461 186.678 116.605C189.064 114.716 190.887 112.081 192.146 108.7C193.439 105.32 194.085 101.359 194.085 96.8182C194.085 92.2775 193.456 88.3333 192.196 84.9858C190.937 81.6383 189.114 79.053 186.727 77.2301C184.341 75.4072 181.441 74.4957 178.027 74.4957C174.547 74.4957 171.614 75.4403 169.227 77.3295C166.841 79.2187 165.035 81.8371 163.808 85.1847C162.582 88.5322 161.969 92.41 161.969 96.8182C161.969 101.259 162.582 105.187 163.808 108.601C165.068 111.982 166.874 114.633 169.227 116.555C171.614 118.445 174.547 119.389 178.027 119.389ZM253.956 136.442C249.084 136.442 244.742 135.597 240.93 133.906C237.119 132.183 234.103 129.647 231.882 126.3C229.694 122.919 228.601 118.71 228.601 113.672C228.601 109.429 229.38 105.866 230.937 102.983C232.495 100.099 234.616 97.7794 237.301 96.0227C239.986 94.2661 243.035 92.9403 246.449 92.0455C249.896 91.1506 253.508 90.5208 257.287 90.1562C261.728 89.6922 265.308 89.2614 268.025 88.8636C270.743 88.4328 272.715 87.803 273.942 86.9744C275.168 86.1458 275.781 84.9195 275.781 83.2955V82.9972C275.781 79.8485 274.787 77.4124 272.798 75.6889C270.843 73.9654 268.059 73.1037 264.446 73.1037C260.634 73.1037 257.602 73.9489 255.348 75.6392C253.094 77.2964 251.603 79.3845 250.873 81.9034L231.285 80.3125C232.28 75.6723 234.235 71.6619 237.152 68.2812C240.068 64.8674 243.83 62.249 248.437 60.4261C253.077 58.5701 258.447 57.642 264.545 57.642C268.788 57.642 272.848 58.1392 276.726 59.1335C280.637 60.1278 284.1 61.669 287.116 63.7571C290.166 65.8452 292.568 68.5298 294.325 71.8111C296.082 75.0592 296.96 78.9536 296.96 83.4943V135H276.875V124.411H276.278C275.052 126.797 273.411 128.902 271.356 130.724C269.301 132.514 266.832 133.923 263.949 134.95C261.065 135.945 257.734 136.442 253.956 136.442ZM260.021 121.825C263.137 121.825 265.888 121.212 268.274 119.986C270.66 118.726 272.533 117.036 273.892 114.915C275.251 112.794 275.93 110.391 275.93 107.706V99.6023C275.267 100.033 274.356 100.431 273.196 100.795C272.069 101.127 270.793 101.442 269.368 101.74C267.943 102.005 266.517 102.254 265.092 102.486C263.667 102.685 262.374 102.867 261.214 103.033C258.729 103.397 256.558 103.977 254.702 104.773C252.845 105.568 251.404 106.645 250.376 108.004C249.349 109.33 248.835 110.987 248.835 112.976C248.835 115.859 249.879 118.063 251.967 119.588C254.088 121.08 256.773 121.825 260.021 121.825ZM334.57 90.8523V135H313.391V58.6364H333.576V72.1094H334.471C336.161 67.6681 338.995 64.1548 342.972 61.5696C346.949 58.9512 351.772 57.642 357.439 57.642C362.742 57.642 367.366 58.8021 371.31 61.1222C375.254 63.4422 378.32 66.7566 380.508 71.0653C382.695 75.3409 383.789 80.4451 383.789 86.3778V135H362.61V90.1562C362.643 85.483 361.45 81.8371 359.03 79.2188C356.611 76.5672 353.28 75.2415 349.037 75.2415C346.187 75.2415 343.668 75.8546 341.481 77.081C339.326 78.3073 337.636 80.0971 336.41 82.4503C335.216 84.7704 334.603 87.571 334.57 90.8523ZM400.879 135V33.1818H422.406V117.251H466.056V135H400.879ZM514.716 136.491C506.861 136.491 500.099 134.901 494.432 131.719C488.797 128.504 484.455 123.963 481.406 118.097C478.357 112.197 476.832 105.22 476.832 97.1662C476.832 89.3111 478.357 82.4171 481.406 76.4844C484.455 70.5516 488.747 65.928 494.282 62.6136C499.851 59.2992 506.38 57.642 513.871 57.642C518.908 57.642 523.598 58.4541 527.94 60.0781C532.315 61.669 536.127 64.072 539.375 67.2869C542.656 70.5019 545.208 74.5455 547.031 79.4176C548.854 84.2566 549.765 89.9242 549.765 96.4205V102.237H485.284V89.1122H529.829C529.829 86.063 529.166 83.3617 527.841 81.0085C526.515 78.6553 524.675 76.8158 522.322 75.4901C520.002 74.1312 517.301 73.4517 514.219 73.4517C511.004 73.4517 508.153 74.1974 505.667 75.6889C503.215 77.1473 501.292 79.1193 499.9 81.6051C498.508 84.0578 497.796 86.7921 497.763 89.8082V102.287C497.763 106.065 498.459 109.33 499.851 112.081C501.276 114.832 503.281 116.953 505.866 118.445C508.452 119.936 511.517 120.682 515.064 120.682C517.417 120.682 519.571 120.35 521.527 119.688C523.482 119.025 525.156 118.03 526.548 116.705C527.94 115.379 529.001 113.755 529.73 111.832L549.318 113.125C548.324 117.831 546.285 121.941 543.203 125.455C540.154 128.935 536.21 131.652 531.371 133.608C526.565 135.53 521.013 136.491 514.716 136.491ZM632.729 58.6364L606.031 135H582.168L555.47 58.6364H577.843L593.702 113.274H594.497L610.307 58.6364H632.729ZM643.567 135V58.6364H664.746V135H643.567ZM654.206 48.7926C651.057 48.7926 648.356 47.7486 646.102 45.6605C643.882 43.5393 642.771 41.0038 642.771 38.054C642.771 35.1373 643.882 32.6349 646.102 30.5469C648.356 28.4257 651.057 27.3651 654.206 27.3651C657.355 27.3651 660.039 28.4257 662.26 30.5469C664.514 32.6349 665.641 35.1373 665.641 38.054C665.641 41.0038 664.514 43.5393 662.26 45.6605C660.039 47.7486 657.355 48.7926 654.206 48.7926ZM703.487 136.442C698.615 136.442 694.273 135.597 690.461 133.906C686.65 132.183 683.634 129.647 681.413 126.3C679.226 122.919 678.132 118.71 678.132 113.672C678.132 109.429 678.911 105.866 680.469 102.983C682.026 100.099 684.148 97.7794 686.832 96.0227C689.517 94.2661 692.566 92.9403 695.98 92.0455C699.427 91.1506 703.04 90.5208 706.818 90.1562C711.259 89.6922 714.839 89.2614 717.557 88.8636C720.274 88.4328 722.247 87.803 723.473 86.9744C724.699 86.1458 725.312 84.9195 725.312 83.2955V82.9972C725.312 79.8485 724.318 77.4124 722.329 75.6889C720.374 73.9654 717.59 73.1037 713.977 73.1037C710.166 73.1037 707.133 73.9489 704.879 75.6392C702.625 77.2964 701.134 79.3845 700.405 81.9034L680.817 80.3125C681.811 75.6723 683.766 71.6619 686.683 68.2812C689.6 64.8674 693.362 62.249 697.969 60.4261C702.609 58.5701 707.978 57.642 714.077 57.642C718.319 57.642 722.379 58.1392 726.257 59.1335C730.168 60.1278 733.631 61.669 736.648 63.7571C739.697 65.8452 742.1 68.5298 743.856 71.8111C745.613 75.0592 746.491 78.9536 746.491 83.4943V135H726.406V124.411H725.809C724.583 126.797 722.943 128.902 720.888 130.724C718.833 132.514 716.363 133.923 713.48 134.95C710.596 135.945 707.265 136.442 703.487 136.442ZM709.552 121.825C712.668 121.825 715.419 121.212 717.805 119.986C720.192 118.726 722.064 117.036 723.423 114.915C724.782 112.794 725.461 110.391 725.461 107.706V99.6023C724.799 100.033 723.887 100.431 722.727 100.795C721.6 101.127 720.324 101.442 718.899 101.74C717.474 102.005 716.049 102.254 714.623 102.486C713.198 102.685 711.906 102.867 710.746 103.033C708.26 103.397 706.089 103.977 704.233 104.773C702.377 105.568 700.935 106.645 699.907 108.004C698.88 109.33 698.366 110.987 698.366 112.976C698.366 115.859 699.41 118.063 701.498 119.588C703.62 121.08 706.304 121.825 709.552 121.825ZM784.101 90.8523V135H762.922V58.6364H783.107V72.1094H784.002C785.692 67.6681 788.526 64.1548 792.503 61.5696C796.481 58.9512 801.303 57.642 806.971 57.642C812.274 57.642 816.897 58.8021 820.841 61.1222C824.786 63.4422 827.851 66.7566 830.039 71.0653C832.226 75.3409 833.32 80.4451 833.32 86.3778V135H812.141V90.1562C812.174 85.483 810.981 81.8371 808.562 79.2188C806.142 76.5672 802.811 75.2415 798.569 75.2415C795.718 75.2415 793.199 75.8546 791.012 77.081C788.858 78.3073 787.167 80.0971 785.941 82.4503C784.748 84.7704 784.135 87.571 784.101 90.8523Z" fill="white"/>
<path d="M96.0318 247L81.6732 196.818H93.263L101.569 231.686H101.986L111.15 196.818H121.074L130.213 231.759H130.654L138.961 196.818H150.551L136.192 247H125.852L116.296 214.191H115.904L106.372 247H96.0318ZM169.142 247.735C165.271 247.735 161.938 246.951 159.145 245.383C156.368 243.798 154.228 241.56 152.725 238.669C151.222 235.761 150.471 232.323 150.471 228.353C150.471 224.482 151.222 221.084 152.725 218.16C154.228 215.236 156.344 212.957 159.072 211.324C161.816 209.69 165.034 208.874 168.726 208.874C171.209 208.874 173.52 209.274 175.66 210.074C177.816 210.858 179.695 212.043 181.296 213.627C182.913 215.212 184.171 217.205 185.069 219.606C185.967 221.991 186.417 224.784 186.417 227.986V230.853H154.636V224.384H176.591C176.591 222.881 176.264 221.55 175.611 220.39C174.958 219.23 174.051 218.324 172.891 217.67C171.748 217 170.416 216.665 168.897 216.665C167.313 216.665 165.908 217.033 164.683 217.768C163.474 218.487 162.526 219.459 161.84 220.684C161.154 221.893 160.803 223.24 160.787 224.727V230.877C160.787 232.739 161.13 234.348 161.816 235.704C162.518 237.06 163.507 238.105 164.781 238.841C166.055 239.576 167.566 239.943 169.314 239.943C170.474 239.943 171.535 239.78 172.499 239.453C173.463 239.126 174.288 238.636 174.974 237.983C175.66 237.33 176.183 236.529 176.542 235.582L186.196 236.219C185.706 238.538 184.701 240.564 183.182 242.295C181.679 244.011 179.736 245.35 177.351 246.314C174.982 247.261 172.246 247.735 169.142 247.735ZM193.424 247V196.818H203.863V215.685H204.181C204.639 214.673 205.3 213.643 206.166 212.598C207.048 211.536 208.192 210.654 209.596 209.952C211.018 209.233 212.782 208.874 214.889 208.874C217.633 208.874 220.165 209.592 222.485 211.03C224.804 212.451 226.659 214.599 228.047 217.474C229.436 220.333 230.13 223.918 230.13 228.231C230.13 232.429 229.452 235.974 228.096 238.865C226.757 241.74 224.927 243.921 222.607 245.407C220.304 246.877 217.723 247.613 214.864 247.613C212.839 247.613 211.116 247.278 209.694 246.608C208.29 245.938 207.138 245.097 206.239 244.084C205.341 243.055 204.655 242.018 204.181 240.972H203.716V247H193.424ZM203.642 228.182C203.642 230.42 203.953 232.372 204.573 234.038C205.194 235.704 206.092 237.003 207.269 237.934C208.445 238.849 209.874 239.306 211.557 239.306C213.255 239.306 214.693 238.841 215.869 237.909C217.045 236.962 217.936 235.655 218.54 233.989C219.161 232.306 219.471 230.371 219.471 228.182C219.471 226.009 219.169 224.098 218.564 222.448C217.96 220.798 217.07 219.508 215.894 218.577C214.717 217.646 213.272 217.18 211.557 217.18C209.858 217.18 208.42 217.629 207.244 218.528C206.084 219.426 205.194 220.7 204.573 222.35C203.953 224 203.642 225.944 203.642 228.182ZM268.452 247.735C264.989 247.735 262 247.114 259.484 245.873C256.969 244.631 255.033 242.949 253.677 240.825C252.337 238.685 251.668 236.3 251.668 233.67C251.668 231.71 252.06 229.971 252.844 228.451C253.628 226.932 254.722 225.536 256.127 224.261C257.532 222.971 259.166 221.689 261.028 220.414L270.755 214.019C272.013 213.219 272.936 212.377 273.524 211.495C274.112 210.597 274.406 209.625 274.406 208.58C274.406 207.583 274.006 206.66 273.206 205.811C272.405 204.961 271.27 204.545 269.8 204.561C268.82 204.561 267.97 204.782 267.252 205.223C266.533 205.647 265.969 206.211 265.561 206.913C265.169 207.599 264.973 208.367 264.973 209.217C264.973 210.262 265.267 211.324 265.855 212.402C266.443 213.48 267.227 214.624 268.207 215.832C269.187 217.025 270.257 218.315 271.417 219.704L295.209 247H284.33L264.483 224.898C263.176 223.412 261.869 221.86 260.562 220.243C259.272 218.609 258.194 216.878 257.328 215.048C256.462 213.202 256.029 211.201 256.029 209.045C256.029 206.611 256.593 204.422 257.72 202.478C258.863 200.534 260.464 198.999 262.523 197.872C264.581 196.728 266.982 196.157 269.726 196.157C272.405 196.157 274.717 196.704 276.661 197.798C278.621 198.876 280.124 200.314 281.169 202.111C282.231 203.891 282.762 205.852 282.762 207.991C282.762 210.36 282.174 212.508 280.998 214.436C279.838 216.347 278.204 218.062 276.097 219.581L265.855 226.957C264.466 227.969 263.437 229.007 262.768 230.069C262.114 231.114 261.787 232.119 261.787 233.082C261.787 234.275 262.081 235.345 262.67 236.292C263.258 237.24 264.091 237.991 265.169 238.547C266.247 239.086 267.513 239.355 268.967 239.355C270.731 239.355 272.471 238.955 274.186 238.154C275.917 237.338 277.486 236.186 278.89 234.7C280.312 233.197 281.447 231.416 282.296 229.358C283.146 227.3 283.57 225.021 283.57 222.522H292.22C292.22 225.593 291.885 228.362 291.215 230.828C290.546 233.278 289.614 235.418 288.422 237.248C287.23 239.061 285.866 240.548 284.33 241.707C283.84 242.018 283.366 242.312 282.909 242.589C282.451 242.867 281.978 243.161 281.488 243.472C279.625 244.974 277.543 246.061 275.239 246.73C272.953 247.4 270.69 247.735 268.452 247.735ZM315.724 196.818H328.809L342.628 230.534H343.216L357.036 196.818H370.121V247H359.829V214.338H359.413L346.426 246.755H339.419L326.432 214.215H326.015V247H315.724V196.818ZM395.671 247.735C391.865 247.735 388.573 246.926 385.796 245.309C383.036 243.676 380.904 241.405 379.401 238.498C377.898 235.574 377.147 232.184 377.147 228.329C377.147 224.441 377.898 221.043 379.401 218.136C380.904 215.212 383.036 212.941 385.796 211.324C388.573 209.69 391.865 208.874 395.671 208.874C399.477 208.874 402.76 209.69 405.521 211.324C408.298 212.941 410.438 215.212 411.941 218.136C413.444 221.043 414.195 224.441 414.195 228.329C414.195 232.184 413.444 235.574 411.941 238.498C410.438 241.405 408.298 243.676 405.521 245.309C402.76 246.926 399.477 247.735 395.671 247.735ZM395.72 239.649C397.451 239.649 398.897 239.159 400.057 238.179C401.217 237.183 402.091 235.827 402.679 234.112C403.283 232.396 403.585 230.444 403.585 228.255C403.585 226.066 403.283 224.114 402.679 222.399C402.091 220.684 401.217 219.328 400.057 218.332C398.897 217.335 397.451 216.837 395.72 216.837C393.972 216.837 392.502 217.335 391.309 218.332C390.133 219.328 389.243 220.684 388.639 222.399C388.051 224.114 387.757 226.066 387.757 228.255C387.757 230.444 388.051 232.396 388.639 234.112C389.243 235.827 390.133 237.183 391.309 238.179C392.502 239.159 393.972 239.649 395.72 239.649ZM421.178 247V196.818H431.617V215.685H431.935C432.393 214.673 433.054 213.643 433.92 212.598C434.802 211.536 435.945 210.654 437.35 209.952C438.771 209.233 440.536 208.874 442.643 208.874C445.387 208.874 447.919 209.592 450.239 211.03C452.558 212.451 454.412 214.599 455.801 217.474C457.189 220.333 457.884 223.918 457.884 228.231C457.884 232.429 457.206 235.974 455.85 238.865C454.51 241.74 452.681 243.921 450.361 245.407C448.058 246.877 445.477 247.613 442.618 247.613C440.593 247.613 438.869 247.278 437.448 246.608C436.043 245.938 434.892 245.097 433.993 244.084C433.095 243.055 432.409 242.018 431.935 240.972H431.47V247H421.178ZM431.396 228.182C431.396 230.42 431.706 232.372 432.327 234.038C432.948 235.704 433.846 237.003 435.023 237.934C436.199 238.849 437.628 239.306 439.311 239.306C441.009 239.306 442.447 238.841 443.623 237.909C444.799 236.962 445.689 235.655 446.294 233.989C446.915 232.306 447.225 230.371 447.225 228.182C447.225 226.009 446.923 224.098 446.318 222.448C445.714 220.798 444.824 219.508 443.648 218.577C442.471 217.646 441.026 217.18 439.311 217.18C437.612 217.18 436.174 217.629 434.998 218.528C433.838 219.426 432.948 220.7 432.327 222.35C431.706 224 431.396 225.944 431.396 228.182ZM464.849 247V209.364H475.287V247H464.849ZM470.092 204.512C468.54 204.512 467.209 203.998 466.098 202.968C465.004 201.923 464.457 200.673 464.457 199.219C464.457 197.782 465.004 196.549 466.098 195.52C467.209 194.474 468.54 193.951 470.092 193.951C471.644 193.951 472.967 194.474 474.062 195.52C475.172 196.549 475.728 197.782 475.728 199.219C475.728 200.673 475.172 201.923 474.062 202.968C472.967 203.998 471.644 204.512 470.092 204.512ZM494.087 196.818V247H483.648V196.818H494.087ZM519.6 247.735C515.729 247.735 512.396 246.951 509.603 245.383C506.826 243.798 504.686 241.56 503.183 238.669C501.68 235.761 500.929 232.323 500.929 228.353C500.929 224.482 501.68 221.084 503.183 218.16C504.686 215.236 506.802 212.957 509.53 211.324C512.274 209.69 515.492 208.874 519.184 208.874C521.667 208.874 523.978 209.274 526.118 210.074C528.274 210.858 530.153 212.043 531.754 213.627C533.371 215.212 534.629 217.205 535.527 219.606C536.425 221.991 536.875 224.784 536.875 227.986V230.853H505.095V224.384H527.049C527.049 222.881 526.722 221.55 526.069 220.39C525.416 219.23 524.509 218.324 523.349 217.67C522.206 217 520.874 216.665 519.355 216.665C517.771 216.665 516.366 217.033 515.141 217.768C513.932 218.487 512.984 219.459 512.298 220.684C511.612 221.893 511.261 223.24 511.245 224.727V230.877C511.245 232.739 511.588 234.348 512.274 235.704C512.976 237.06 513.965 238.105 515.239 238.841C516.513 239.576 518.024 239.943 519.772 239.943C520.932 239.943 521.993 239.78 522.957 239.453C523.921 239.126 524.746 238.636 525.432 237.983C526.118 237.33 526.641 236.529 527 235.582L536.654 236.219C536.164 238.538 535.159 240.564 533.64 242.295C532.137 244.011 530.194 245.35 527.809 246.314C525.44 247.261 522.704 247.735 519.6 247.735ZM577.641 247H559.852V196.818H577.788C582.836 196.818 587.181 197.823 590.824 199.832C594.467 201.825 597.268 204.692 599.228 208.433C601.205 212.173 602.193 216.649 602.193 221.86C602.193 227.087 601.205 231.58 599.228 235.337C597.268 239.094 594.45 241.977 590.775 243.986C587.116 245.995 582.738 247 577.641 247ZM570.462 237.909H577.2C580.337 237.909 582.975 237.354 585.115 236.243C587.271 235.116 588.888 233.376 589.966 231.024C591.061 228.656 591.608 225.601 591.608 221.86C591.608 218.152 591.061 215.122 589.966 212.77C588.888 210.417 587.279 208.686 585.139 207.575C582.999 206.464 580.361 205.909 577.225 205.909H570.462V237.909ZM627.008 247.735C623.137 247.735 619.805 246.951 617.011 245.383C614.234 243.798 612.094 241.56 610.591 238.669C609.089 235.761 608.337 232.323 608.337 228.353C608.337 224.482 609.089 221.084 610.591 218.16C612.094 215.236 614.21 212.957 616.938 211.324C619.682 209.69 622.9 208.874 626.592 208.874C629.075 208.874 631.386 209.274 633.526 210.074C635.682 210.858 637.561 212.043 639.162 213.627C640.779 215.212 642.037 217.205 642.935 219.606C643.834 221.991 644.283 224.784 644.283 227.986V230.853H612.503V224.384H634.457C634.457 222.881 634.131 221.55 633.477 220.39C632.824 219.23 631.917 218.324 630.757 217.67C629.614 217 628.283 216.665 626.763 216.665C625.179 216.665 623.774 217.033 622.549 217.768C621.34 218.487 620.393 219.459 619.707 220.684C619.02 221.893 618.669 223.24 618.653 224.727V230.877C618.653 232.739 618.996 234.348 619.682 235.704C620.384 237.06 621.373 238.105 622.647 238.841C623.921 239.576 625.432 239.943 627.18 239.943C628.34 239.943 629.402 239.78 630.365 239.453C631.329 239.126 632.154 238.636 632.84 237.983C633.526 237.33 634.049 236.529 634.408 235.582L644.062 236.219C643.572 238.538 642.568 240.564 641.049 242.295C639.546 244.011 637.602 245.35 635.217 246.314C632.848 247.261 630.112 247.735 627.008 247.735ZM685.172 209.364L672.014 247H660.253L647.095 209.364H658.121L665.937 236.292H666.329L674.121 209.364H685.172ZM706.453 247.735C702.581 247.735 699.249 246.951 696.456 245.383C693.679 243.798 691.539 241.56 690.036 238.669C688.533 235.761 687.782 232.323 687.782 228.353C687.782 224.482 688.533 221.084 690.036 218.16C691.539 215.236 693.654 212.957 696.382 211.324C699.126 209.69 702.344 208.874 706.036 208.874C708.519 208.874 710.831 209.274 712.97 210.074C715.127 210.858 717.005 212.043 718.606 213.627C720.223 215.212 721.481 217.205 722.38 219.606C723.278 221.991 723.727 224.784 723.727 227.986V230.853H691.947V224.384H713.902C713.902 222.881 713.575 221.55 712.921 220.39C712.268 219.23 711.361 218.324 710.202 217.67C709.058 217 707.727 216.665 706.208 216.665C704.623 216.665 703.218 217.033 701.993 217.768C700.784 218.487 699.837 219.459 699.151 220.684C698.465 221.893 698.114 223.24 698.097 224.727V230.877C698.097 232.739 698.44 234.348 699.126 235.704C699.829 237.06 700.817 238.105 702.091 238.841C703.365 239.576 704.876 239.943 706.624 239.943C707.784 239.943 708.846 239.78 709.81 239.453C710.773 239.126 711.598 238.636 712.284 237.983C712.97 237.33 713.493 236.529 713.853 235.582L723.507 236.219C723.017 238.538 722.012 240.564 720.493 242.295C718.99 244.011 717.046 245.35 714.661 246.314C712.293 247.261 709.556 247.735 706.453 247.735ZM740.977 196.818V247H730.539V196.818H740.977ZM766.344 247.735C762.538 247.735 759.246 246.926 756.469 245.309C753.708 243.676 751.577 241.405 750.074 238.498C748.571 235.574 747.82 232.184 747.82 228.329C747.82 224.441 748.571 221.043 750.074 218.136C751.577 215.212 753.708 212.941 756.469 211.324C759.246 209.69 762.538 208.874 766.344 208.874C770.15 208.874 773.433 209.69 776.194 211.324C778.971 212.941 781.111 215.212 782.614 218.136C784.117 221.043 784.868 224.441 784.868 228.329C784.868 232.184 784.117 235.574 782.614 238.498C781.111 241.405 778.971 243.676 776.194 245.309C773.433 246.926 770.15 247.735 766.344 247.735ZM766.393 239.649C768.124 239.649 769.57 239.159 770.73 238.179C771.89 237.183 772.764 235.827 773.352 234.112C773.956 232.396 774.258 230.444 774.258 228.255C774.258 226.066 773.956 224.114 773.352 222.399C772.764 220.684 771.89 219.328 770.73 218.332C769.57 217.335 768.124 216.837 766.393 216.837C764.645 216.837 763.175 217.335 761.982 218.332C760.806 219.328 759.916 220.684 759.311 222.399C758.723 224.114 758.429 226.066 758.429 228.255C758.429 230.444 758.723 232.396 759.311 234.112C759.916 235.827 760.806 237.183 761.982 238.179C763.175 239.159 764.645 239.649 766.393 239.649ZM791.655 261.114V209.364H801.946V215.685H802.412C802.869 214.673 803.531 213.643 804.397 212.598C805.279 211.536 806.422 210.654 807.827 209.952C809.248 209.233 811.012 208.874 813.12 208.874C815.864 208.874 818.396 209.592 820.716 211.03C823.035 212.451 824.889 214.599 826.278 217.474C827.666 220.333 828.36 223.918 828.36 228.231C828.36 232.429 827.683 235.974 826.327 238.865C824.987 241.74 823.158 243.921 820.838 245.407C818.535 246.877 815.954 247.613 813.095 247.613C811.07 247.613 809.346 247.278 807.925 246.608C806.52 245.938 805.369 245.097 804.47 244.084C803.572 243.055 802.886 242.018 802.412 240.972H802.093V261.114H791.655ZM801.873 228.182C801.873 230.42 802.183 232.372 802.804 234.038C803.425 235.704 804.323 237.003 805.499 237.934C806.675 238.849 808.105 239.306 809.787 239.306C811.486 239.306 812.924 238.841 814.1 237.909C815.276 236.962 816.166 235.655 816.771 233.989C817.391 232.306 817.702 230.371 817.702 228.182C817.702 226.009 817.4 224.098 816.795 222.448C816.191 220.798 815.3 219.508 814.124 218.577C812.948 217.646 811.503 217.18 809.787 217.18C808.088 217.18 806.651 217.629 805.475 218.528C804.315 219.426 803.425 220.7 802.804 222.35C802.183 224 801.873 225.944 801.873 228.182ZM852.471 247.735C848.6 247.735 845.267 246.951 842.474 245.383C839.697 243.798 837.557 241.56 836.054 238.669C834.552 235.761 833.8 232.323 833.8 228.353C833.8 224.482 834.552 221.084 836.054 218.16C837.557 215.236 839.673 212.957 842.401 211.324C845.145 209.69 848.363 208.874 852.055 208.874C854.538 208.874 856.849 209.274 858.989 210.074C861.145 210.858 863.024 212.043 864.625 213.627C866.242 215.212 867.5 217.205 868.398 219.606C869.297 221.991 869.746 224.784 869.746 227.986V230.853H837.966V224.384H859.92C859.92 222.881 859.593 221.55 858.94 220.39C858.287 219.23 857.38 218.324 856.22 217.67C855.077 217 853.745 216.665 852.226 216.665C850.642 216.665 849.237 217.033 848.012 217.768C846.803 218.487 845.856 219.459 845.169 220.684C844.483 221.893 844.132 223.24 844.116 224.727V230.877C844.116 232.739 844.459 234.348 845.145 235.704C845.847 237.06 846.836 238.105 848.11 238.841C849.384 239.576 850.895 239.943 852.643 239.943C853.803 239.943 854.864 239.78 855.828 239.453C856.792 239.126 857.617 238.636 858.303 237.983C858.989 237.33 859.512 236.529 859.871 235.582L869.525 236.219C869.035 238.538 868.031 240.564 866.511 242.295C865.009 244.011 863.065 245.35 860.68 246.314C858.311 247.261 855.575 247.735 852.471 247.735ZM876.558 247V209.364H886.677V215.93H887.069C887.755 213.594 888.907 211.83 890.524 210.638C892.141 209.429 894.004 208.825 896.111 208.825C896.634 208.825 897.197 208.857 897.802 208.923C898.406 208.988 898.937 209.078 899.394 209.192V218.454C898.904 218.307 898.226 218.176 897.36 218.062C896.495 217.948 895.702 217.891 894.984 217.891C893.448 217.891 892.076 218.225 890.867 218.895C889.675 219.549 888.727 220.463 888.025 221.64C887.339 222.816 886.996 224.172 886.996 225.707V247H876.558Z" fill="white"/>
</svg>
